<mxfile host="Electron" modified="2024-04-13T01:35:46.754Z" agent="Mozilla/5.0 (X11; Linux x86_64) AppleWebKit/537.36 (KHTML, like Gecko) draw.io/24.1.0 Chrome/120.0.6099.109 Electron/28.1.0 Safari/537.36" etag="BtpF0xSUpz20lvDDgwR3" version="24.1.0" type="device">
  <diagram name="第 1 页" id="Spz_60w4jZcsbdWRZQk3">
    <mxGraphModel dx="371" dy="453" grid="1" gridSize="10" guides="1" tooltips="1" connect="1" arrows="1" fold="1" page="1" pageScale="1" pageWidth="827" pageHeight="1169" math="0" shadow="0">
      <root>
        <mxCell id="0" />
        <mxCell id="1" parent="0" />
        <mxCell id="BZsjgEw98n6IlcS7FpIR-47" style="edgeStyle=orthogonalEdgeStyle;rounded=0;orthogonalLoop=1;jettySize=auto;html=1;exitX=0;exitY=0.5;exitDx=0;exitDy=0;exitPerimeter=0;endArrow=none;endFill=0;" edge="1" parent="1" source="BZsjgEw98n6IlcS7FpIR-33">
          <mxGeometry relative="1" as="geometry">
            <mxPoint x="400" y="660" as="targetPoint" />
            <Array as="points">
              <mxPoint x="380" y="660" />
              <mxPoint x="380" y="660" />
            </Array>
          </mxGeometry>
        </mxCell>
        <mxCell id="BZsjgEw98n6IlcS7FpIR-33" value="" style="verticalLabelPosition=bottom;shadow=0;dashed=0;align=center;html=1;verticalAlign=top;shape=mxgraph.electrical.logic_gates.inverter_2;direction=north;" vertex="1" parent="1">
          <mxGeometry x="330" y="600" width="40" height="60" as="geometry" />
        </mxCell>
        <mxCell id="BZsjgEw98n6IlcS7FpIR-41" style="edgeStyle=orthogonalEdgeStyle;rounded=0;orthogonalLoop=1;jettySize=auto;html=1;exitX=0;exitY=0.75;exitDx=0;exitDy=0;exitPerimeter=0;endArrow=none;endFill=0;" edge="1" parent="1" source="BZsjgEw98n6IlcS7FpIR-34">
          <mxGeometry relative="1" as="geometry">
            <mxPoint x="380" y="580" as="targetPoint" />
          </mxGeometry>
        </mxCell>
        <mxCell id="BZsjgEw98n6IlcS7FpIR-34" value="" style="verticalLabelPosition=bottom;shadow=0;dashed=0;align=center;html=1;verticalAlign=top;shape=mxgraph.electrical.logic_gates.logic_gate;operation=and;" vertex="1" parent="1">
          <mxGeometry x="400" y="480" width="120" height="80" as="geometry" />
        </mxCell>
        <mxCell id="BZsjgEw98n6IlcS7FpIR-42" style="edgeStyle=orthogonalEdgeStyle;rounded=0;orthogonalLoop=1;jettySize=auto;html=1;exitX=0;exitY=0.25;exitDx=0;exitDy=0;exitPerimeter=0;endArrow=none;endFill=0;" edge="1" parent="1" source="BZsjgEw98n6IlcS7FpIR-35">
          <mxGeometry relative="1" as="geometry">
            <mxPoint x="380" y="580" as="targetPoint" />
          </mxGeometry>
        </mxCell>
        <mxCell id="BZsjgEw98n6IlcS7FpIR-35" value="" style="verticalLabelPosition=bottom;shadow=0;dashed=0;align=center;html=1;verticalAlign=top;shape=mxgraph.electrical.logic_gates.logic_gate;operation=and;" vertex="1" parent="1">
          <mxGeometry x="400" y="600" width="120" height="80" as="geometry" />
        </mxCell>
        <mxCell id="BZsjgEw98n6IlcS7FpIR-40" style="edgeStyle=orthogonalEdgeStyle;rounded=0;orthogonalLoop=1;jettySize=auto;html=1;endArrow=none;endFill=0;" edge="1" parent="1" source="BZsjgEw98n6IlcS7FpIR-39">
          <mxGeometry relative="1" as="geometry">
            <mxPoint x="380" y="580" as="targetPoint" />
          </mxGeometry>
        </mxCell>
        <mxCell id="BZsjgEw98n6IlcS7FpIR-39" value="in" style="text;strokeColor=none;align=center;fillColor=none;html=1;verticalAlign=middle;whiteSpace=wrap;rounded=0;" vertex="1" parent="1">
          <mxGeometry x="320" y="575" width="10" height="10" as="geometry" />
        </mxCell>
        <mxCell id="BZsjgEw98n6IlcS7FpIR-44" value="sel" style="text;strokeColor=none;align=center;fillColor=none;html=1;verticalAlign=middle;whiteSpace=wrap;rounded=0;" vertex="1" parent="1">
          <mxGeometry x="395" y="710" width="10" height="10" as="geometry" />
        </mxCell>
        <mxCell id="BZsjgEw98n6IlcS7FpIR-45" style="edgeStyle=orthogonalEdgeStyle;rounded=0;orthogonalLoop=1;jettySize=auto;html=1;entryX=0;entryY=0.75;entryDx=0;entryDy=0;entryPerimeter=0;endArrow=none;endFill=0;" edge="1" parent="1" source="BZsjgEw98n6IlcS7FpIR-44" target="BZsjgEw98n6IlcS7FpIR-35">
          <mxGeometry relative="1" as="geometry">
            <Array as="points">
              <mxPoint x="400" y="670" />
              <mxPoint x="400" y="670" />
            </Array>
          </mxGeometry>
        </mxCell>
        <mxCell id="BZsjgEw98n6IlcS7FpIR-48" value="Notsel" style="edgeStyle=orthogonalEdgeStyle;rounded=0;orthogonalLoop=1;jettySize=auto;html=1;exitX=1;exitY=0.5;exitDx=0;exitDy=0;exitPerimeter=0;entryX=0;entryY=0.25;entryDx=0;entryDy=0;entryPerimeter=0;endArrow=none;endFill=0;" edge="1" parent="1" source="BZsjgEw98n6IlcS7FpIR-33" target="BZsjgEw98n6IlcS7FpIR-34">
          <mxGeometry relative="1" as="geometry">
            <Array as="points">
              <mxPoint x="370" y="500" />
              <mxPoint x="370" y="500" />
            </Array>
          </mxGeometry>
        </mxCell>
        <mxCell id="BZsjgEw98n6IlcS7FpIR-49" value="a" style="text;strokeColor=none;align=center;fillColor=none;html=1;verticalAlign=middle;whiteSpace=wrap;rounded=0;" vertex="1" parent="1">
          <mxGeometry x="520" y="515" width="10" height="10" as="geometry" />
        </mxCell>
        <mxCell id="BZsjgEw98n6IlcS7FpIR-50" value="b" style="text;strokeColor=none;align=center;fillColor=none;html=1;verticalAlign=middle;whiteSpace=wrap;rounded=0;" vertex="1" parent="1">
          <mxGeometry x="520" y="635" width="10" height="10" as="geometry" />
        </mxCell>
      </root>
    </mxGraphModel>
  </diagram>
</mxfile>
